HIERARCHY
ROOT SpineBase
{
  OFFSET 0.000000 0.000000 0.000000
  CHANNELS 6 Xposition Yposition Zposition Zrotation Xrotation Yrotation
  JOINT SpineMid
  {
    OFFSET 0.000000 31.632035 0.000000
    CHANNELS 3 Zrotation Xrotation Yrotation
    JOINT SpineShoulder
    {
      OFFSET -0.001495 23.466357 -0.839414
      CHANNELS 3 Zrotation Xrotation Yrotation
      JOINT Neck
      {
        OFFSET 0.005403 7.773774 -0.604305
        CHANNELS 3 Zrotation Xrotation Yrotation
        JOINT Head
        {
          OFFSET -5.423873 12.639644 0.945425
          CHANNELS 3 Zrotation Xrotation Yrotation
          End Site
          {
            OFFSET 0 0 0
          }
        }
      }
      JOINT ShoulderLeft
      {
        OFFSET -15.211040 -4.951365 8.110830
        CHANNELS 3 Zrotation Xrotation Yrotation
        JOINT ElbowLeft
        {
          OFFSET -1.992780 -23.133276 3.416314
          CHANNELS 3 Zrotation Xrotation Yrotation
          JOINT WristLeft
          {
            OFFSET -0.846911 -22.686284 -1.298665
            CHANNELS 3 Zrotation Xrotation Yrotation
            JOINT HandLeft
            {
              OFFSET 0.845952 -8.930663 5.332165
              CHANNELS 3 Zrotation Xrotation Yrotation
              JOINT HandTipLeft
              {
                OFFSET 0.492470 -6.281740 0.230829
                CHANNELS 3 Zrotation Xrotation Yrotation
                End Site
                {
                  OFFSET 0 0 0
                }
              }
              JOINT ThumbLeft
              {
                OFFSET 0.518816 -3.576409 -2.997371
                CHANNELS 3 Zrotation Xrotation Yrotation
                End Site
                {
                  OFFSET 0 0 0
                }
              }
            }
          }
        }
      }
      JOINT ShoulderRight
      {
        OFFSET 12.450208 -3.803010 -9.002508
        CHANNELS 3 Zrotation Xrotation Yrotation
        JOINT ElbowRight
        {
          OFFSET 7.770291 -26.929578 -4.381274
          CHANNELS 3 Zrotation Xrotation Yrotation
          JOINT WristRight
          {
            OFFSET 1.273140 -20.978551 -6.329429
            CHANNELS 3 Zrotation Xrotation Yrotation
            JOINT HandRight
            {
              OFFSET -1.232527 -5.983077 0.215354
              CHANNELS 3 Zrotation Xrotation Yrotation
              JOINT HandTipRight
              {
                OFFSET -0.417643 -7.805722 0.126211
                CHANNELS 3 Zrotation Xrotation Yrotation
                End Site
                {
                  OFFSET 0 0 0
                }
              }
              JOINT ThumbRight
              {
                OFFSET -3.435510 0.987220 -0.951337
                CHANNELS 3 Zrotation Xrotation Yrotation
                End Site
                {
                  OFFSET 0 0 0
                }
              }
            }
          }
        }
      }
    }
  }
  JOINT HipLeft
  {
    OFFSET -6.495889 0.103850 -0.442956
    CHANNELS 3 Zrotation Xrotation Yrotation
    JOINT KneeLeft
    {
      OFFSET 2.982793 -38.533505 6.727475
      CHANNELS 3 Zrotation Xrotation Yrotation
      JOINT AnkleLeft
      {
        OFFSET 5.436133 -34.641867 8.271360
        CHANNELS 3 Zrotation Xrotation Yrotation
        JOINT FootLeft
        {
          OFFSET -2.963579 -7.969041 -4.791099
          CHANNELS 3 Zrotation Xrotation Yrotation
          End Site
          {
            OFFSET 0 0 0
          }
        }
      }
    }
  }
  JOINT HipRight
  {
    OFFSET 6.883258 1.680388 -6.557264
    CHANNELS 3 Zrotation Xrotation Yrotation
    JOINT KneeRight
    {
      OFFSET 9.158414 -34.709095 -2.095555
      CHANNELS 3 Zrotation Xrotation Yrotation
      JOINT AnkleRight
      {
        OFFSET 9.526030 -37.409565 8.737159
        CHANNELS 3 Zrotation Xrotation Yrotation
        JOINT FootRight
        {
          OFFSET -0.108851 -8.344715 -5.295634
          CHANNELS 3 Zrotation Xrotation Yrotation
          End Site
          {
            OFFSET 0 0 0
          }
        }
      }
    }
  }
}
MOTION
Frames: 16
Frame Time: 0.033333
-19.561193 86.089838 326.132446 -0.000000 0.000000 24.560532 -0.000000 0.000000 -24.560532 -0.000000 0.000000 0.000000 -0.000000 0.000000 0.000000 0.000000 0.000000 0.000000 -0.000000 0.000000 0.000000 -0.000000 0.000000 0.000000 -0.000000 0.000000 0.000000 -0.000000 0.000000 0.000000 0.000000 0.000000 0.000000 0.000000 0.000000 0.000000 -0.000000 0.000000 0.000000 -0.000000 0.000000 0.000000 -0.000000 0.000000 0.000000 -0.000000 0.000000 0.000000 0.000000 0.000000 0.000000 0.000000 0.000000 0.000000 -0.000000 0.000000 -24.560532 -0.000000 0.000000 0.000000 -0.000000 0.000000 0.000000 0.000000 0.000000 0.000000 -0.000000 0.000000 -24.560532 -0.000000 0.000000 0.000000 -0.000000 0.000000 0.000000 0.000000 0.000000 0.000000
-19.699395 86.041193 326.175745 -0.141063 -0.065348 24.854655 0.155464 0.000004 -24.854735 -0.000000 0.000000 0.000000 -0.000000 0.000000 0.000000 0.000000 0.000000 0.000000 -0.000000 0.000000 0.000000 0.011199 -1.353282 0.050047 -2.952186 5.935741 -1.216450 5.411725 -1.757809 1.903320 0.000000 0.000000 0.000000 0.000000 0.000000 0.000000 -0.000000 0.000000 0.000000 -0.000000 0.000000 0.000000 -1.143411 3.129361 -0.654030 0.211653 -2.518105 0.621646 0.000000 0.000000 0.000000 0.000000 0.000000 0.000000 0.155464 0.000004 -24.854735 -0.000000 0.000000 0.000000 -0.000000 0.000000 0.000000 0.000000 0.000000 0.000000 0.155464 0.000004 -24.854735 -0.000000 0.000000 0.000000 -0.000000 0.000000 0.000000 0.000000 0.000000 0.000000
-19.831456 85.999770 326.228812 -0.264339 -0.126403 25.105401 0.292998 0.002306 -25.105699 -0.000000 0.000000 0.000000 0.504160 0.801636 0.302034 0.000000 0.000000 0.000000 0.843556 0.151741 0.110481 -0.838905 -2.454749 -0.026988 -6.314533 12.654644 -2.163623 11.108208 -4.605019 4.621895 0.000000 0.000000 0.000000 0.000000 0.000000 0.000000 -0.000000 0.000000 0.000000 -0.000000 0.000000 0.000000 -1.936217 5.481559 -1.105097 0.233917 -4.249056 1.047223 0.000000 0.000000 0.000000 0.000000 0.000000 0.000000 0.292998 0.002306 -25.105699 -0.000000 0.000000 0.000000 -0.000000 0.000000 0.000000 0.000000 0.000000 0.000000 0.292998 0.002306 -25.105699 -0.000000 0.000000 0.000000 0.419013 -0.668651 -0.255702 0.000000 0.000000 0.000000
-19.957376 85.965570 326.291648 -0.369950 -0.183211 25.312932 0.412763 0.007441 -25.313550 -0.000000 0.000000 0.000000 0.660316 1.125048 0.425551 0.000000 0.000000 0.000000 1.116375 0.285893 0.137624 -1.128393 -3.222245 -0.033383 -9.886961 19.988384 -2.626432 16.771298 -8.436135 8.111044 0.000000 0.000000 0.000000 0.000000 0.000000 0.000000 -0.000000 0.000000 0.000000 -0.705540 0.582742 0.251532 -1.693974 6.560704 -1.675474 0.108407 -5.282793 1.309042 0.000000 0.000000 0.000000 0.000000 0.000000 0.000000 0.412763 0.007441 -25.313550 -0.000000 0.000000 0.000000 0.372653 0.721108 -0.493291 0.000000 0.000000 0.000000 0.412763 0.007441 -25.313550 -0.000000 0.000000 0.000000 0.555106 -0.904459 -0.337811 0.000000 0.000000 0.000000
-20.077156 85.938593 326.364252 -0.457998 -0.235814 25.477322 0.514896 0.015867 -25.478336 -0.000000 0.000000 0.000000 0.753669 1.397434 0.532134 0.000000 0.000000 0.000000 1.315834 0.457404 0.149912 -1.355007 -3.763096 -0.036356 -13.187532 27.167765 -2.436006 21.776928 -12.769919 11.847517 0.000000 0.000000 0.000000 0.000000 0.000000 0.000000 -0.000000 0.000000 0.000000 -0.866347 0.756911 0.312568 -1.751917 7.411431 -1.924772 -0.124974 -5.693652 1.437258 0.000000 0.000000 0.000000 0.000000 0.000000 0.000000 0.514896 0.015867 -25.478336 -0.000000 0.000000 0.000000 0.734482 0.797596 -0.741972 0.000000 0.000000 0.000000 1.345996 -0.261008 -25.500617 -0.869331 -0.107916 0.023241 0.642117 -1.073361 -0.389826 0.000000 0.000000 0.000000
-20.190794 85.918839 326.446624 -0.528570 -0.284249 25.598564 0.599499 0.027964 -25.600022 -0.000000 0.000000 0.000000 0.784786 1.619135 0.622558 0.000000 0.000000 0.000000 1.453063 0.667971 0.148877 -1.529583 -4.109774 -0.036285 -15.426798 32.946544 -1.699247 25.147760 -16.897906 14.759171 0.000000 0.000000 0.000000 0.000000 0.000000 0.000000 -0.000000 0.000000 0.000000 -0.989178 0.920864 0.361599 -1.612225 7.688761 -2.058865 -0.432686 -5.537698 1.456127 0.000000 0.000000 0.000000 0.000000 0.000000 0.000000 0.599499 0.027964 -25.600022 -0.000000 0.000000 0.000000 1.214840 0.790987 -1.032712 0.000000 0.000000 0.000000 1.634284 -0.260132 -25.612328 -1.057640 -0.187544 0.012672 0.679987 -1.174773 -0.411945 0.000000 0.000000 0.000000
-20.291097 85.918392 326.533509 -0.572335 -0.318621 25.615189 0.653831 0.039860 -25.617007 -0.000000 0.000000 0.000000 0.690314 1.826837 0.718626 0.000000 0.000000 0.000000 1.400649 1.083213 0.100548 -1.852045 -3.095273 -0.042604 -11.469815 25.970336 -2.255324 22.066788 -13.076696 11.447595 0.000000 0.000000 0.000000 0.000000 0.000000 0.000000 -0.000000 0.000000 0.000000 -1.078376 1.174822 0.406695 -1.475540 7.566582 -2.134971 -0.522059 -5.222415 1.456684 0.000000 0.000000 0.000000 0.000000 0.000000 0.000000 0.653831 0.039860 -25.617007 -0.000000 0.000000 0.000000 2.334571 0.377413 -1.560455 0.000000 0.000000 0.000000 1.887619 -0.228499 -25.612257 -1.228562 -0.291359 -0.005843 0.724313 -1.264275 -0.438281 0.000000 0.000000 0.000000
-20.372873 85.920369 326.615124 -0.576346 -0.328603 25.622342 0.661769 0.047043 -25.624266 -0.000000 0.000000 0.000000 0.566730 1.978660 0.794257 0.000000 0.000000 0.000000 1.448560 1.501010 0.065847 -2.074205 -3.273266 -0.027943 -8.555169 26.166693 -1.112859 18.279020 -14.888440 9.014743 0.000000 0.000000 0.000000 0.000000 0.000000 0.000000 -0.000000 0.000000 0.000000 -1.154021 1.369251 0.443751 -0.978735 6.214236 -1.965524 -1.178382 -3.711868 1.182205 0.000000 0.000000 0.000000 0.000000 0.000000 0.000000 0.661769 0.047043 -25.624266 -0.000000 0.000000 0.000000 3.140680 0.356642 -2.047933 0.000000 0.000000 0.000000 2.053870 -0.197882 -25.604089 -1.361252 -0.380719 -0.022868 0.674947 -1.250551 -0.407505 0.000000 0.000000 0.000000
-20.471702 85.918992 326.726357 -0.596529 -0.362286 25.626217 0.694537 0.068636 -25.628519 -0.000000 0.000000 0.000000 0.424553 2.049161 0.837605 0.000000 0.000000 0.000000 1.477940 1.794229 0.040695 -1.935911 -3.630992 -0.013935 -6.710687 27.182287 -0.097709 13.975602 -16.646806 6.620754 0.000000 0.000000 0.000000 0.000000 0.000000 0.000000 -0.000000 0.000000 0.000000 -1.150639 1.476289 0.450115 -0.034357 4.793909 -1.723141 -2.174123 -2.522414 0.881628 0.000000 0.000000 0.000000 0.000000 0.000000 0.000000 0.694537 0.068636 -25.628519 -0.000000 0.000000 0.000000 3.670789 0.252027 -2.333894 0.000000 0.000000 0.000000 2.290788 -0.117037 -25.581748 -1.519977 -0.521746 -0.053017 0.529311 -1.072660 -0.318873 0.000000 0.000000 0.000000
-20.563551 85.913228 326.837502 -0.623330 -0.416761 25.613921 0.742240 0.106316 -25.616877 -0.000000 0.000000 0.000000 0.303182 2.099836 0.870741 0.000000 0.000000 0.000000 1.514805 1.964587 0.028597 -1.679158 -4.079222 -0.000910 -5.227212 27.268216 0.611937 10.076197 -17.529048 4.308525 0.000000 0.000000 0.000000 0.000000 0.000000 0.000000 0.382781 0.747752 0.150681 -1.498626 0.757469 0.271418 0.914082 3.283921 -1.406366 -2.658118 -0.234483 0.586851 0.000000 0.000000 0.000000 0.000000 0.000000 0.000000 1.453851 0.586030 -25.487953 -0.435967 -0.739214 -0.136036 3.919765 0.386493 -2.541270 0.000000 0.000000 0.000000 2.539212 -0.002566 -25.540391 -1.668401 -0.676405 -0.087962 0.246416 -0.908370 -0.143300 0.000000 0.000000 0.000000
-20.642902 85.901051 326.955535 -0.645520 -0.476887 25.620691 0.788262 0.150842 -25.624416 -0.000000 0.000000 0.000000 0.215374 2.113668 0.885076 0.000000 0.000000 0.000000 1.507317 2.041660 0.019934 -1.184150 -4.076706 0.001040 -4.683644 26.606154 0.954760 6.349416 -17.959793 2.360362 0.000000 0.000000 0.000000 0.000000 0.000000 0.000000 0.367389 0.806358 0.169962 -1.409031 0.607416 0.222220 1.980789 1.569655 -0.972412 -2.947531 1.392799 0.263761 0.000000 0.000000 0.000000 0.000000 0.000000 0.000000 1.569212 0.626085 -25.483228 0.349864 -0.620888 0.086166 2.599824 0.812924 -2.694955 0.000000 0.000000 0.000000 2.760521 0.124605 -25.518858 -1.791307 -0.825779 -0.123209 -0.000000 0.000000 0.000000 0.000000 0.000000 0.000000
-20.693977 85.881712 327.052694 -0.643994 -0.521556 25.702231 0.806475 0.190627 -25.706504 -0.000000 0.000000 0.000000 0.092862 2.064107 0.875717 0.000000 0.000000 0.000000 1.460421 2.047376 0.013252 -0.676540 -4.224523 0.013862 -4.324438 25.946143 1.197524 3.786446 -18.518830 0.956408 0.000000 0.000000 0.000000 0.000000 0.000000 0.000000 0.350398 0.818108 0.176192 -1.309287 0.420985 0.179183 3.261247 0.142849 -0.537296 -4.413013 2.940412 -0.060657 0.000000 0.000000 0.000000 0.000000 0.000000 0.000000 1.636888 0.650627 -25.556718 0.377961 -0.553735 0.107378 1.560619 1.483354 -2.412602 0.000000 0.000000 0.000000 2.878060 0.227391 -25.580538 -1.852866 -0.927335 -0.148520 -0.000000 0.000000 0.000000 0.000000 0.000000 0.000000
-20.704385 85.859544 327.097396 -0.611175 -0.518560 25.805320 0.775966 0.200767 -25.809445 -0.000000 0.000000 0.000000 0.106245 2.071863 0.877744 0.000000 0.000000 0.000000 1.424934 1.998333 0.013480 -0.231125 -4.395430 0.024608 -4.746747 26.651373 1.320765 2.780146 -19.139703 0.499847 0.000000 0.000000 0.000000 0.000000 0.000000 0.000000 0.313671 0.811159 0.180453 -1.165619 0.162739 0.125732 4.446668 -1.015820 -0.110353 -5.422761 3.950971 -0.310018 0.000000 0.000000 0.000000 0.000000 0.000000 0.000000 1.566619 0.608807 -25.666594 0.384358 -0.359664 0.131587 0.495079 2.345714 -2.132578 0.000000 0.000000 0.000000 2.857950 0.243768 -25.680761 -1.857917 -0.940688 -0.152015 -0.000000 0.000000 0.000000 0.000000 0.000000 0.000000
-20.693560 85.838763 327.111430 -0.565445 -0.507840 25.955023 0.730680 0.209119 -25.958862 -0.000000 0.000000 0.000000 0.179922 2.141925 0.900535 0.000000 0.000000 0.000000 1.393702 1.910195 0.018093 0.141244 -4.625705 0.036565 -5.158882 27.615531 1.449726 2.727628 -17.907438 0.595555 0.000000 0.000000 0.000000 0.000000 0.000000 0.000000 0.288341 0.785185 0.177348 -1.042460 -0.118756 0.080073 5.529786 -1.070186 0.063077 -6.804252 3.167404 -0.353717 0.000000 0.000000 0.000000 0.000000 0.000000 0.000000 1.466303 0.582708 -25.826008 0.354077 -0.156506 0.147542 -0.052596 2.390340 -1.829223 0.000000 0.000000 0.000000 2.780739 0.235256 -25.834996 -1.833979 -0.916608 -0.146488 -0.000000 0.000000 0.000000 0.000000 0.000000 0.000000
-20.719255 85.813603 327.212106 -0.545244 -0.575300 25.991557 0.742223 0.278139 -25.996096 -0.000000 0.000000 0.000000 0.240043 2.167575 0.905641 0.000000 0.000000 0.000000 1.398000 1.805306 0.029009 0.239134 -4.873694 0.043279 -4.844369 29.458183 1.872426 1.161772 -16.169365 -0.091745 0.000000 0.000000 0.000000 0.000000 0.000000 0.000000 0.257041 0.774015 0.179470 -0.259487 -0.773198 -0.182957 5.406794 -0.536977 0.333921 -7.264275 4.327855 -0.433547 0.000000 0.000000 0.000000 0.000000 0.000000 0.000000 1.453150 0.726840 -25.869669 0.320659 -0.016396 0.161475 -0.253037 2.136071 -1.639424 0.000000 0.000000 0.000000 2.866539 0.380010 -25.851722 -1.867584 -1.017566 -0.173163 -0.000000 0.000000 0.000000 0.000000 0.000000 0.000000
-20.756915 85.777001 327.352898 -0.518656 -0.671352 25.988971 0.760407 0.376157 -25.994506 -0.000000 0.000000 0.000000 0.256935 2.071631 0.863189 0.000000 0.000000 0.000000 1.449333 1.704907 0.045755 0.205611 -5.081763 0.040527 -4.738349 31.445586 2.209021 1.414472 -16.335150 -0.108315 0.000000 0.000000 0.000000 0.000000 0.000000 0.000000 -0.000000 0.000000 0.000000 -0.000000 0.000000 0.000000 5.801816 -0.044693 0.222802 -7.245272 3.455052 -0.377311 0.000000 0.000000 0.000000 0.000000 0.000000 0.000000 1.436832 0.950515 -25.877115 0.416798 0.125750 0.209099 -0.670437 1.815634 -1.402636 0.000000 0.000000 0.000000 2.995444 0.605700 -25.816837 -1.912402 -1.179382 -0.216506 -0.000000 0.000000 0.000000 0.000000 0.000000 0.000000
